<svg width="18" height="25" viewBox="0 0 18 25" fill="none" xmlns="http://www.w3.org/2000/svg">
<path fill-rule="evenodd" clip-rule="evenodd" d="M17 6.75H13.75C13.07 3.13 11.22 0.75 9 0.75C6.78 0.75 4.93 3.13 4.25 6.75H1C0.801893 6.75259 0.612629 6.83244 0.472534 6.97253C0.332439 7.11263 0.25259 7.30189 0.25 7.5V19.5C0.25 20.7598 0.750445 21.968 1.64124 22.8588C2.53204 23.7496 3.74022 24.25 5 24.25H13C14.2598 24.25 15.468 23.7496 16.3588 22.8588C17.2496 21.968 17.75 20.7598 17.75 19.5V7.5C17.7474 7.30189 17.6676 7.11263 17.5275 6.97253C17.3874 6.83244 17.1981 6.75259 17 6.75ZM9 2.25C10.38 2.25 11.66 4.09 12.22 6.75H5.78C6.34 4.09 7.62 2.25 9 2.25ZM16.25 19.5C16.2474 20.3611 15.9041 21.1863 15.2952 21.7952C14.6863 22.4041 13.8611 22.7474 13 22.75H5C4.13886 22.7474 3.31374 22.4041 2.70482 21.7952C2.09589 21.1863 1.75264 20.3611 1.75 19.5V8.25H4L3.76 10.41L4.25 10.47C4.38072 10.4868 4.51348 10.4776 4.64063 10.4429C4.76778 10.4082 4.88682 10.3487 4.9909 10.2679C5.09499 10.187 5.18206 10.0864 5.24712 9.97179C5.31218 9.85717 5.35394 9.73082 5.37 9.6L5.54 8.25H12.46L12.63 9.6C12.6461 9.73082 12.6878 9.85717 12.7529 9.97179C12.8179 10.0864 12.905 10.187 13.0091 10.2679C13.1132 10.3487 13.2322 10.4082 13.3594 10.4429C13.4865 10.4776 13.6193 10.4868 13.75 10.47L14.24 10.41L14 8.25H16.28L16.25 19.5Z" fill="black"/>
</svg>
