<svg width="14" height="14" viewBox="0 0 14 14" fill="none" xmlns="http://www.w3.org/2000/svg">
<path fill-rule="evenodd" clip-rule="evenodd" d="M12.82 0.819971L12.47 0.469971L6.99997 5.93997L2.23997 1.17997C2.14701 1.08624 2.03641 1.01185 1.91455 0.961079C1.79269 0.910311 1.66198 0.884172 1.52997 0.884172C1.39796 0.884172 1.26725 0.910311 1.14539 0.961079C1.02353 1.01185 0.912934 1.08624 0.819971 1.17997L0.469971 1.52997L5.93997 6.99997L1.17997 11.76C1.08624 11.8529 1.01185 11.9635 0.961079 12.0854C0.910311 12.2073 0.884172 12.338 0.884172 12.47C0.884172 12.602 0.910311 12.7327 0.961079 12.8545C1.01185 12.9764 1.08624 13.087 1.17997 13.18L1.52997 13.53L6.99997 8.05997L11.76 12.82C11.8529 12.9137 11.9635 12.9881 12.0854 13.0389C12.2073 13.0896 12.338 13.1158 12.47 13.1158C12.602 13.1158 12.7327 13.0896 12.8545 13.0389C12.9764 12.9881 13.087 12.9137 13.18 12.82L13.53 12.47L8.05997 6.99997L12.82 2.23997C12.9137 2.14701 12.9881 2.03641 13.0389 1.91455C13.0896 1.79269 13.1158 1.66198 13.1158 1.52997C13.1158 1.39796 13.0896 1.26725 13.0389 1.14539C12.9881 1.02353 12.9137 0.912934 12.82 0.819971Z" fill="black"/>
</svg>
