<svg width="31" height="15" viewBox="0 0 31 15" fill="none" xmlns="http://www.w3.org/2000/svg">
<g clip-path="url(#clip0_6_1345)">
<g clip-path="url(#clip1_6_1345)">
<path fill-rule="evenodd" clip-rule="evenodd" d="M8.25996 13.39H15.06L18.16 1.79004H8.25996C5.05996 1.79004 2.45996 4.39004 2.45996 7.59004C2.45996 10.79 5.05996 13.39 8.25996 13.39Z" fill="white"/>
<path fill-rule="evenodd" clip-rule="evenodd" d="M23.46 0.589844H8.26001C4.36001 0.589844 1.26001 3.68984 1.26001 7.58984C1.26001 11.4898 4.36001 14.5898 8.26001 14.5898H23.46C27.36 14.5898 30.46 11.4898 30.46 7.58984C30.46 3.68984 27.26 0.589844 23.46 0.589844ZM2.46001 7.58984C2.46001 4.38984 5.06001 1.78984 8.26001 1.78984H18.16L15.06 13.3898H8.26001C5.06001 13.3898 2.46001 10.7898 2.46001 7.58984Z" fill="#0066FF"/>
<path d="M25.46 4.58994C25.66 4.78994 25.66 5.18994 25.46 5.38994L23.36 7.58994L25.56 9.78994C25.76 9.98994 25.76 10.3899 25.56 10.5899C25.36 10.7899 24.96 10.7899 24.76 10.5899L22.56 8.38994L20.36 10.5899C20.16 10.7899 19.76 10.7899 19.56 10.5899C19.36 10.3899 19.36 9.98994 19.56 9.78994L21.66 7.58994L19.46 5.38994C19.26 5.18994 19.26 4.78994 19.46 4.58994C19.66 4.38994 20.06 4.38994 20.26 4.58994L22.46 6.78994L24.66 4.58994C24.86 4.38994 25.26 4.38994 25.46 4.58994Z" fill="white"/>
<path d="M13.56 4.69004C13.76 4.89004 13.86 5.29004 13.66 5.49004L9.46002 10.39C9.36002 10.49 9.26002 10.59 9.16002 10.59C8.96002 10.69 8.66002 10.69 8.46002 10.49L6.26002 8.29004C6.06002 8.09004 6.06002 7.69004 6.26002 7.49004C6.46002 7.29004 6.86002 7.29004 7.06002 7.49004L8.86002 9.19004L12.66 4.69004C12.86 4.49004 13.26 4.49004 13.56 4.69004Z" fill="#0066FF"/>
</g>
</g>
<defs>
<clipPath id="clip0_6_1345">
<rect width="30" height="14" fill="white" transform="translate(0.859985 0.589844)"/>
</clipPath>
<clipPath id="clip1_6_1345">
<rect width="30" height="14" fill="white" transform="translate(0.859985 0.589844)"/>
</clipPath>
</defs>
</svg>
