<svg width="16" height="13" viewBox="0 0 16 13" fill="none" xmlns="http://www.w3.org/2000/svg">
<path fill-rule="evenodd" clip-rule="evenodd" d="M14.5 1.25C14.6326 1.25 14.7598 1.30268 14.8536 1.39645C14.9473 1.49021 15 1.61739 15 1.75V11.25C15 11.3826 14.9473 11.5098 14.8536 11.6036C14.7598 11.6973 14.6326 11.75 14.5 11.75H1.5C1.36739 11.75 1.24021 11.6973 1.14645 11.6036C1.05268 11.5098 1 11.3826 1 11.25V1.75C1 1.61739 1.05268 1.49021 1.14645 1.39645C1.24021 1.30268 1.36739 1.25 1.5 1.25H14.5ZM14.5 0.25H1.5C1.10218 0.25 0.720644 0.408035 0.43934 0.68934C0.158035 0.970644 0 1.35218 0 1.75L0 11.25C0 11.6478 0.158035 12.0294 0.43934 12.3107C0.720644 12.592 1.10218 12.75 1.5 12.75H14.5C14.8978 12.75 15.2794 12.592 15.5607 12.3107C15.842 12.0294 16 11.6478 16 11.25V1.75C16 1.35218 15.842 0.970644 15.5607 0.68934C15.2794 0.408035 14.8978 0.25 14.5 0.25Z" fill="black"/>
<path fill-rule="evenodd" clip-rule="evenodd" d="M0 6.85999H16V7.85999H0V6.85999Z" fill="black"/>
<path fill-rule="evenodd" clip-rule="evenodd" d="M7.48999 0.5H8.48999V12.5H7.48999V0.5Z" fill="black"/>
<path fill-rule="evenodd" clip-rule="evenodd" d="M7.32005 7.28999H7.24005C6.74005 7.20999 4.24005 6.74999 3.52005 6.00999C3.12163 5.59631 2.89905 5.04433 2.89905 4.46999C2.89905 3.89565 3.12163 3.34367 3.52005 2.92999C3.92746 2.53116 4.47491 2.3078 5.04505 2.3078C5.61518 2.3078 6.16263 2.53116 6.57005 2.92999C7.28005 3.65999 7.73005 6.20999 7.81005 6.71999C7.82572 6.79765 7.82106 6.87805 7.79654 6.95338C7.77201 7.02872 7.72844 7.09644 7.67005 7.14999C7.62453 7.19622 7.56993 7.23252 7.5097 7.25662C7.44946 7.28071 7.38489 7.29207 7.32005 7.28999ZM5.00005 3.26999C4.84968 3.26942 4.70086 3.30026 4.5631 3.36053C4.42534 3.4208 4.30168 3.50917 4.20005 3.61999C3.98018 3.8443 3.85702 4.14589 3.85702 4.45999C3.85702 4.77409 3.98018 5.07567 4.20005 5.29999C4.95665 5.73344 5.78757 6.02172 6.65005 6.14999C6.52929 5.26188 6.24445 4.40397 5.81005 3.61999C5.70651 3.5089 5.58109 3.42045 5.44168 3.36021C5.30228 3.29997 5.15191 3.26926 5.00005 3.26999ZM8.66005 7.28999C8.59447 7.29079 8.52945 7.27786 8.46918 7.25202C8.4089 7.22619 8.35469 7.18803 8.31005 7.13999C8.25166 7.08644 8.20809 7.01872 8.18356 6.94338C8.15903 6.86805 8.15438 6.78765 8.17005 6.70999C8.25005 6.19999 8.70005 3.64999 9.42005 2.91999C9.82389 2.53369 10.3612 2.31808 10.92 2.31808C11.4789 2.31808 12.0162 2.53369 12.42 2.91999C12.8185 3.33367 13.041 3.88565 13.041 4.45999C13.041 5.03433 12.8185 5.58631 12.42 5.99999C11.7 6.73999 9.20005 7.19999 8.71005 7.27999L8.66005 7.28999ZM10.94 3.28999C10.7882 3.28926 10.6378 3.31997 10.4984 3.38021C10.359 3.44045 10.2336 3.5289 10.13 3.63999C9.69887 4.42895 9.41427 5.28952 9.29005 6.17999C10.156 6.04711 10.9899 5.75556 11.75 5.31999C11.9676 5.09446 12.0891 4.79333 12.0891 4.47999C12.0891 4.16665 11.9676 3.86552 11.75 3.63999C11.6479 3.52574 11.5232 3.43388 11.3838 3.3702C11.2444 3.30652 11.0933 3.2724 10.94 3.26999V3.28999Z" fill="black"/>
<path fill-rule="evenodd" clip-rule="evenodd" d="M8.25006 7.5L5.51006 10.3L5.15006 10.66L4.92006 10.42C4.85097 10.3563 4.79583 10.279 4.75812 10.193C4.7204 10.1069 4.70093 10.014 4.70093 9.92C4.70093 9.82604 4.7204 9.7331 4.75812 9.64705C4.79583 9.56099 4.85097 9.48368 4.92006 9.42L7.54006 6.74C7.58654 6.69314 7.64184 6.65594 7.70277 6.63056C7.7637 6.60517 7.82905 6.5921 7.89506 6.5921C7.96107 6.5921 8.02642 6.60517 8.08735 6.63056C8.14828 6.65594 8.20358 6.69314 8.25006 6.74C8.35021 6.84112 8.40639 6.97768 8.40639 7.12C8.40639 7.26232 8.35021 7.39888 8.25006 7.5Z" fill="black"/>
<path fill-rule="evenodd" clip-rule="evenodd" d="M7.72994 7.5L10.4699 10.3L10.8299 10.66L11.0599 10.42C11.1265 10.3548 11.1793 10.277 11.2154 10.1912C11.2515 10.1053 11.27 10.0131 11.27 9.92C11.27 9.82687 11.2515 9.73468 11.2154 9.64883C11.1793 9.56297 11.1265 9.48518 11.0599 9.42L8.43994 6.74C8.39346 6.69314 8.33816 6.65594 8.27723 6.63056C8.2163 6.60517 8.15095 6.5921 8.08494 6.5921C8.01894 6.5921 7.95358 6.60517 7.89265 6.63056C7.83172 6.65594 7.77642 6.69314 7.72994 6.74C7.62979 6.84112 7.57361 6.97768 7.57361 7.12C7.57361 7.26232 7.62979 7.39888 7.72994 7.5Z" fill="black"/>
</svg>
