<svg width="16" height="17" viewBox="0 0 16 17" fill="none" xmlns="http://www.w3.org/2000/svg">
<path fill-rule="evenodd" clip-rule="evenodd" d="M0 8.5C0 4.082 3.582 0.5 8 0.5C12.418 0.5 16 4.082 16 8.5C16 12.918 12.418 16.5 8 16.5C3.582 16.5 0 12.918 0 8.5ZM14.6667 8.5C14.6667 4.824 11.676 1.83333 8 1.83333C4.324 1.83333 1.33333 4.824 1.33333 8.5C1.33333 12.176 4.324 15.1667 8 15.1667C11.676 15.1667 14.6667 12.176 14.6667 8.5ZM8.83333 11.8333C8.83333 12.0543 8.74554 12.2663 8.58926 12.4226C8.43298 12.5789 8.22101 12.6667 8 12.6667C7.77899 12.6667 7.56702 12.5789 7.41074 12.4226C7.25446 12.2663 7.16667 12.0543 7.16667 11.8333C7.16667 11.6123 7.25446 11.4004 7.41074 11.2441C7.56702 11.0878 7.77899 11 8 11C8.22101 11 8.43298 11.0878 8.58926 11.2441C8.74554 11.4004 8.83333 11.6123 8.83333 11.8333ZM8.062 4.53133C8.75267 4.53133 9.35733 4.75733 9.762 5.168C10.142 5.55333 10.3393 6.08333 10.332 6.69933C10.3207 7.622 9.75867 8.22733 9.308 8.714C8.70467 9.364 8.676 9.72333 8.68467 10.166H7.348C7.344 9.18267 7.36133 8.74933 8.30267 7.854C8.684 7.49133 8.98533 7.20467 8.944 6.64C8.906 6.10333 8.45733 5.82267 8.03467 5.82267C7.56133 5.82267 7.00933 6.174 7.00933 7.16467H5.66867C5.66867 5.56467 6.60867 4.53133 8.062 4.53133Z" fill="black"/>
</svg>
