<svg width="21" height="21" viewBox="0 0 21 21" fill="none" xmlns="http://www.w3.org/2000/svg">
<path fill-rule="evenodd" clip-rule="evenodd" d="M10.2469 0.596191C7.53187 0.596191 7.19143 0.607699 6.12516 0.65635C5.06111 0.704882 4.3344 0.87389 3.69853 1.12103C3.04115 1.37647 2.48365 1.71829 1.92786 2.27405C1.3721 2.82984 1.03028 3.38734 0.774841 4.04472C0.527698 4.6806 0.35869 5.4073 0.310159 6.47135C0.261508 7.53762 0.25 7.87806 0.25 10.5931C0.25 13.308 0.261508 13.6485 0.310159 14.7147C0.35869 15.7788 0.527698 16.5055 0.774841 17.1413C1.03028 17.7987 1.3721 18.3562 1.92786 18.912C2.48365 19.4678 3.04115 19.8096 3.69853 20.0651C4.3344 20.3122 5.06111 20.4812 6.12516 20.5297C7.19143 20.5784 7.53187 20.5899 10.2469 20.5899C12.9618 20.5899 13.3023 20.5784 14.3685 20.5297C15.4326 20.4812 16.1593 20.3122 16.7952 20.0651C17.4525 19.8096 18.01 19.4678 18.5658 18.912C19.1216 18.3562 19.4634 17.7987 19.7189 17.1413C19.966 16.5055 20.135 15.7788 20.1835 14.7147C20.2322 13.6485 20.2437 13.308 20.2437 10.5931C20.2437 7.87806 20.2322 7.53762 20.1835 6.47135C20.135 5.4073 19.966 4.6806 19.7189 4.04472C19.4634 3.38734 19.1216 2.82984 18.5658 2.27405C18.01 1.71829 17.4525 1.37647 16.7952 1.12103C16.1593 0.87389 15.4326 0.704882 14.3685 0.65635C13.3023 0.607699 12.9618 0.596191 10.2469 0.596191ZM10.2469 2.39742C12.9161 2.39742 13.2323 2.40762 14.2864 2.45572C15.2611 2.50016 15.7904 2.66302 16.1427 2.79992C16.6093 2.98127 16.9423 3.1979 17.2921 3.54774C17.642 3.89754 17.8586 4.23056 18.04 4.69718C18.1769 5.04945 18.3397 5.57877 18.3842 6.55345C18.4323 7.60758 18.4425 7.92377 18.4425 10.5931C18.4425 13.2623 18.4323 13.5785 18.3842 14.6326C18.3397 15.6073 18.1769 16.1366 18.04 16.4889C17.8586 16.9555 17.642 17.2885 17.2921 17.6383C16.9423 17.9882 16.6093 18.2048 16.1427 18.3862C15.7904 18.5231 15.2611 18.6859 14.2864 18.7304C13.2325 18.7785 12.9163 18.7887 10.2469 18.7887C7.57738 18.7887 7.26127 18.7785 6.20726 18.7304C5.23258 18.6859 4.70325 18.5231 4.35099 18.3862C3.88437 18.2048 3.55135 17.9882 3.20155 17.6383C2.85175 17.2885 2.63508 16.9555 2.45373 16.4889C2.31683 16.1366 2.15397 15.6073 2.10952 14.6326C2.06143 13.5785 2.05123 13.2623 2.05123 10.5931C2.05123 7.92377 2.06143 7.60758 2.10952 6.55345C2.15397 5.57877 2.31683 5.04945 2.45373 4.69718C2.63508 4.23056 2.85171 3.89754 3.20155 3.54774C3.55135 3.1979 3.88437 2.98127 4.35099 2.79992C4.70325 2.66302 5.23258 2.50016 6.20726 2.45572C7.26139 2.40762 7.57758 2.39742 10.2469 2.39742Z" fill="#53565A"/>
<path fill-rule="evenodd" clip-rule="evenodd" d="M6.93221 10.6044C6.93221 8.76403 8.42412 7.27213 10.2645 7.27213C12.1049 7.27213 13.5968 8.76403 13.5968 10.6044C13.5968 12.4448 12.1049 13.9367 10.2645 13.9367C8.42412 13.9367 6.93221 12.4448 6.93221 10.6044ZM5.13098 10.6044C5.13098 13.4396 7.42932 15.7379 10.2645 15.7379C13.0997 15.7379 15.398 13.4396 15.398 10.6044C15.398 7.76923 13.0997 5.4709 10.2645 5.4709C7.42932 5.4709 5.13098 7.76923 5.13098 10.6044ZM15.5832 6.45637C14.9207 6.45637 14.3836 5.91931 14.3836 5.25677C14.3836 4.59423 14.9207 4.05713 15.5832 4.05713C16.2457 4.05713 16.7828 4.59423 16.7828 5.25677C16.7828 5.91931 16.2457 6.45637 15.5832 6.45637Z" fill="#53565A"/>
</svg>
