<svg width="16" height="17" viewBox="0 0 16 17" fill="none" xmlns="http://www.w3.org/2000/svg">
<path fill-rule="evenodd" clip-rule="evenodd" d="M11 15.4102L4.54 8.94016C4.46924 8.87121 4.41301 8.78879 4.37461 8.69777C4.33621 8.60674 4.31643 8.50895 4.31643 8.41016C4.31643 8.31136 4.33621 8.21357 4.37461 8.12254C4.41301 8.03152 4.46924 7.9491 4.54 7.88016L11 1.41016L11.35 1.76016C11.5363 1.94752 11.6408 2.20097 11.6408 2.46516C11.6408 2.72934 11.5363 2.98279 11.35 3.17016L6.13 8.41016L11.39 13.6502C11.5763 13.8375 11.6808 14.091 11.6808 14.3552C11.6808 14.6193 11.5763 14.8728 11.39 15.0602L11 15.4102Z" fill="black"/>
</svg>
