<svg width="12" height="16" viewBox="0 0 12 16" fill="none" xmlns="http://www.w3.org/2000/svg">
<path fill-rule="evenodd" clip-rule="evenodd" d="M5.99998 13.42C5.87321 13.4183 5.75212 13.3672 5.66247 13.2775C5.57283 13.1879 5.5217 13.0668 5.51998 12.94C5.51998 12.0694 4.45731 10.8407 3.67664 9.93868L3.43998 9.63735C2.40331 8.42135 1.11664 6.91068 1.11664 4.67068C1.16531 3.41967 1.70536 2.23831 2.6196 1.38298C3.53383 0.527655 4.74849 0.067371 5.99998 0.102016C7.256 0.0605664 8.47736 0.517987 9.39714 1.37431C10.3169 2.23064 10.8603 3.41624 10.9086 4.67202C10.9086 6.91202 9.62864 8.42202 8.58531 9.63868L8.32331 9.93868C7.54264 10.8414 6.47998 12.07 6.47998 12.9407C6.47825 13.0675 6.42713 13.1885 6.33748 13.2782C6.24783 13.3678 6.12674 13.419 5.99998 13.4207V13.42ZM5.99998 1.06135C4.99848 1.0197 4.02117 1.37592 3.28138 2.05227C2.54159 2.72861 2.09939 3.67014 2.05131 4.67135C2.05131 6.54002 3.11331 7.82002 4.14398 9.01068L4.40664 9.31068C5.00146 9.96022 5.53485 10.6634 5.99998 11.4114C6.46514 10.6637 6.99852 9.96067 7.59331 9.31135L7.85598 9.01135C8.88664 7.82068 9.94931 6.54068 9.94931 4.67135C9.90106 3.67014 9.4587 2.72867 8.71878 2.05245C7.97886 1.37623 7.00148 1.01952 5.99998 1.06135ZM5.99998 7.02002C5.58859 7.02002 5.18645 6.89803 4.84439 6.66947C4.50234 6.44092 4.23574 6.11607 4.07831 5.736C3.92088 5.35593 3.87969 4.93771 3.95994 4.53423C4.0402 4.13075 4.2383 3.76013 4.5292 3.46923C4.82009 3.17834 5.19071 2.98024 5.59419 2.89998C5.99767 2.81973 6.41589 2.86092 6.79596 3.01835C7.17603 3.17578 7.50088 3.44238 7.72943 3.78443C7.95799 4.12648 8.07998 4.52863 8.07998 4.94002C8.07822 5.49113 7.85851 6.01916 7.46882 6.40886C7.07912 6.79855 6.55109 7.01826 5.99998 7.02002ZM5.99998 3.82002C5.77846 3.82002 5.56192 3.8857 5.37774 4.00877C5.19356 4.13184 5.05 4.30676 4.96523 4.51141C4.88046 4.71606 4.85828 4.94126 4.9015 5.15852C4.94471 5.37578 5.05138 5.57534 5.20802 5.73198C5.36465 5.88861 5.56422 5.99528 5.78148 6.0385C5.99873 6.08171 6.22393 6.05953 6.42858 5.97476C6.63324 5.88999 6.80816 5.74644 6.93122 5.56226C7.05429 5.37807 7.11998 5.16153 7.11998 4.94002C7.11823 4.64351 6.99967 4.35965 6.79 4.14999C6.58034 3.94033 6.29648 3.82177 5.99998 3.82002ZM11.6 12.94C11.6 12.0567 10.6593 11.3147 9.03998 10.8987C8.95455 10.8761 8.86537 10.8715 8.77806 10.8851C8.69075 10.8987 8.6072 10.9302 8.53268 10.9777C8.45815 11.0251 8.39426 11.0875 8.34503 11.1609C8.2958 11.2343 8.26231 11.3171 8.24664 11.404L8.19531 11.6987C9.77598 11.9867 10.6333 12.556 10.6333 12.94C10.6333 13.5287 8.82864 14.38 5.99331 14.38C3.15864 14.38 1.35998 13.5287 1.35998 12.94C1.35998 12.556 2.21731 11.9867 3.79864 11.6987L3.74731 11.404C3.73165 11.3171 3.69815 11.2343 3.64892 11.1609C3.59969 11.0875 3.53581 11.0251 3.46128 10.9777C3.38675 10.9302 3.3032 10.8987 3.21589 10.8851C3.12859 10.8715 3.03941 10.8761 2.95398 10.8987C1.33998 11.3147 0.393311 12.0567 0.393311 12.94C0.393311 14.5147 3.20864 15.34 5.99331 15.34C8.77664 15.34 11.6 14.5147 11.6 12.94Z" fill="black"/>
</svg>
