<svg width="34" height="35" viewBox="0 0 34 35" fill="none" xmlns="http://www.w3.org/2000/svg">
<path d="M16.9987 0.405029C26.389 0.405029 34 8.01725 34 17.405C34 26.7953 26.389 34.405 16.9987 34.405C7.61096 34.405 0 26.7966 0 17.405C0 8.01599 7.61096 0.405029 16.9987 0.405029ZM25.9093 25.8169C25.3741 25.8169 24.8704 25.657 24.373 25.3245C21.6227 23.4935 22.5621 21.2974 24.4397 17.8987C25.233 16.4568 26.0541 14.9721 26.4193 13.4384C26.8109 11.7887 27.1673 9.38355 25.7367 7.56518C25.0643 6.71266 24.0405 6.05407 22.6981 5.60829C21.2979 5.14614 19.4996 4.89555 17.3463 4.86658L17.1977 4.86281L16.6512 4.86658C14.4991 4.89555 12.6984 5.14614 11.3019 5.60829C9.95696 6.05407 8.93444 6.7114 8.26074 7.56518C6.83022 9.38481 7.18659 11.7887 7.58074 13.4384C7.94341 14.9721 8.7657 16.4606 9.55778 17.8974C11.4353 21.2974 12.376 23.4935 9.62326 25.3245C9.12711 25.657 8.62593 25.8156 8.08948 25.8156C7.01911 25.8156 5.78504 25.2804 5.1277 24.953L5.28763 25.2338C6.64763 27.2751 8.39548 28.3606 10.3373 28.3606C11.1885 28.3606 12.0876 28.1541 13.0069 27.7461C13.9828 27.3141 14.8391 26.5233 15.4209 25.5184C16.0001 24.5135 16.2306 23.4318 16.0656 22.4698C15.8667 21.6072 15.4159 20.4474 14.8983 19.1038C13.5421 15.5993 11.6897 10.8078 13.289 8.46429C13.9639 7.47577 15.1779 6.99221 16.9975 6.98592C18.8196 6.99221 20.0323 7.47577 20.7073 8.46429C22.309 10.8078 20.4554 15.5993 19.1017 19.0987C18.5816 20.4436 18.1321 21.6047 17.9331 22.461C17.7669 23.4318 17.9961 24.5135 18.5779 25.5184C19.1596 26.5233 20.0159 27.3141 20.9919 27.7473C21.9111 28.1541 22.8102 28.3606 23.6615 28.3606C25.6033 28.3606 27.3511 27.2751 28.7174 25.225L28.871 24.953C28.2162 25.2804 26.9821 25.8169 25.9093 25.8169Z" fill="#D31334"/>
</svg>
