<svg width="21" height="21" viewBox="0 0 21 21" fill="none" xmlns="http://www.w3.org/2000/svg">
<path fill-rule="evenodd" clip-rule="evenodd" d="M6.92125 20.3048C7.43875 19.4798 8.215 18.1248 8.49875 17.0436L9.29375 14.0861C9.70875 14.8598 10.92 15.5161 12.2087 15.5161C16.0463 15.5161 18.8125 12.0636 18.8125 7.77609C18.8125 3.66359 15.3812 0.589844 10.9675 0.589844C5.4775 0.589844 2.5625 4.19359 2.5625 8.11859C2.5625 9.94359 3.555 12.2161 5.14375 12.9398C5.38625 13.0486 5.51375 12.9998 5.56875 12.7736C5.61 12.5998 5.82625 11.7561 5.9225 11.3611C5.94021 11.299 5.94121 11.2334 5.92541 11.1709C5.9096 11.1083 5.87755 11.051 5.8325 11.0048C5.31 10.3798 4.88875 9.23484 4.88875 8.16484C4.88875 5.42234 7.0125 2.76484 10.6325 2.76484C13.76 2.76484 15.9462 4.84859 15.9462 7.82859C15.9462 11.1948 14.21 13.5261 11.9462 13.5261C10.6975 13.5261 9.765 12.5161 10.0637 11.2761C10.4225 9.79859 11.1163 8.20109 11.1163 7.13484C11.1163 6.17984 10.5925 5.38234 9.50875 5.38234C8.23 5.38234 7.205 6.67359 7.205 8.40359C7.205 9.50484 7.58625 10.2511 7.58625 10.2511L6.0925 16.4348C5.84 17.5098 5.9375 19.0198 6.05125 20.0048L6.29375 20.5898L6.92125 20.3048Z" fill="#53565A"/>
</svg>
