<svg width="16" height="17" viewBox="0 0 16 17" fill="none" xmlns="http://www.w3.org/2000/svg">
<path fill-rule="evenodd" clip-rule="evenodd" d="M5.00001 15.4102L11.5 8.94016C11.5708 8.87121 11.627 8.78879 11.6654 8.69777C11.7038 8.60674 11.7236 8.50895 11.7236 8.41016C11.7236 8.31136 11.7038 8.21357 11.6654 8.12254C11.627 8.03152 11.5708 7.9491 11.5 7.88016L5.00001 1.41016L4.65001 1.76016C4.46376 1.94752 4.35921 2.20097 4.35921 2.46516C4.35921 2.72934 4.46376 2.98279 4.65001 3.17016L9.87001 8.41016L4.61001 13.6502C4.42376 13.8375 4.31921 14.091 4.31921 14.3552C4.31921 14.6193 4.42376 14.8728 4.61001 15.0602L5.00001 15.4102Z" fill="black"/>
</svg>
