<svg width="15" height="15" viewBox="0 0 15 15" fill="none" xmlns="http://www.w3.org/2000/svg">
<path fill-rule="evenodd" clip-rule="evenodd" d="M14.53 13.97L10.53 9.97002C11.4368 8.80252 11.8652 7.33374 11.7285 5.86184C11.5918 4.38994 10.9001 3.02521 9.79385 2.0447C8.68759 1.06419 7.24969 0.541373 5.77201 0.582381C4.29434 0.62339 2.88764 1.22515 1.83747 2.2655C0.787302 3.30586 0.172361 4.70685 0.11748 6.18407C0.0625993 7.66129 0.571891 9.10404 1.54197 10.2195C2.51205 11.3349 3.87022 12.0393 5.34078 12.1899C6.81133 12.3404 8.28407 11.9257 9.46003 11.03L12.73 14.29C12.823 14.3837 12.9336 14.4581 13.0555 14.5089C13.1773 14.5597 13.308 14.5858 13.44 14.5858C13.572 14.5858 13.7027 14.5597 13.8246 14.5089C13.9465 14.4581 14.0571 14.3837 14.15 14.29L14.53 13.97ZM6.00003 10.75C5.15946 10.75 4.33776 10.5008 3.63886 10.0338C2.93995 9.56677 2.39521 8.90301 2.07354 8.12642C1.75187 7.34984 1.6677 6.4953 1.83169 5.67089C1.99568 4.84647 2.40045 4.08919 2.99483 3.49482C3.5892 2.90044 4.34648 2.49567 5.1709 2.33168C5.99531 2.16769 6.84985 2.25186 7.62643 2.57353C8.40302 2.8952 9.06678 3.43994 9.53377 4.13885C10.0008 4.83775 10.25 5.65945 10.25 6.50002C10.2474 7.62638 9.79877 8.70585 9.00232 9.50231C8.20586 10.2988 7.12639 10.7474 6.00003 10.75Z" fill="black"/>
</svg>
