<svg width="24" height="24" viewBox="0 0 24 24" fill="none" xmlns="http://www.w3.org/2000/svg">
<path fill-rule="evenodd" clip-rule="evenodd" d="M12 13.75C9.66003 13.75 7.77003 10.95 7.77003 8.63002C7.74121 8.05991 7.82975 7.48995 8.03017 6.95545C8.23058 6.42095 8.53861 5.93329 8.93516 5.52268C9.33171 5.11207 9.80834 4.78724 10.3355 4.56833C10.8627 4.34942 11.4293 4.24108 12 4.25002C12.5716 4.23969 13.1392 4.34701 13.6676 4.5653C14.196 4.7836 14.6738 5.10821 15.0715 5.51897C15.4691 5.92973 15.778 6.41787 15.9791 6.95306C16.1801 7.48825 16.2689 8.05905 16.24 8.63002C16.24 11 14.35 13.75 12 13.75ZM12 12.25C13.41 12.25 14.74 10.25 14.74 8.63002C14.74 7.90332 14.4513 7.20639 13.9375 6.69254C13.4236 6.17869 12.7267 5.89002 12 5.89002C11.2733 5.89002 10.5764 6.17869 10.0626 6.69254C9.5487 7.20639 9.26003 7.90332 9.26003 8.63002C9.26003 10.21 10.59 12.25 12 12.25ZM23.75 12C23.7487 10.3984 23.4202 8.81389 22.7847 7.34372C22.1493 5.87355 21.2202 4.54868 20.0544 3.45036C18.8887 2.35205 17.5109 1.50342 16.0055 0.956542C14.5001 0.40966 12.8989 0.176043 11.3 0.270017C4.88003 0.735017 0.00102535 6.23002 0.300025 12.66C0.413933 14.9916 1.22568 17.2353 2.63003 19.1L3.07003 18.77C3.26299 18.621 3.3949 18.4067 3.44094 18.1673C3.48697 17.9279 3.44398 17.6799 3.32003 17.47C2.28631 15.8335 1.7416 13.9357 1.75003 12C1.75196 10.4114 2.12312 8.84504 2.83419 7.42448C3.54527 6.00392 4.5768 4.76808 5.84736 3.81452C7.11792 2.86095 8.59274 2.21576 10.1554 1.92987C11.718 1.64399 13.3258 1.72523 14.8516 2.16718C16.3775 2.60913 17.7798 3.39971 18.9477 4.47649C20.1157 5.55328 21.0174 6.8868 21.5816 8.37181C22.1459 9.85681 22.3573 11.4526 22.1991 13.0333C22.0408 14.614 21.5174 16.1363 20.67 17.48C20.55 17.6901 20.5101 17.9366 20.5579 18.1738C20.6057 18.411 20.7379 18.6228 20.93 18.77L21.37 19.1C22.9257 17.0611 23.7626 14.5646 23.75 12ZM12 23.75C9.12352 23.7381 6.35147 22.6706 4.21003 20.75L4.15003 20.7C4.04481 20.5815 3.97874 20.4333 3.96084 20.2758C3.94294 20.1183 3.97409 19.9592 4.05003 19.82C4.46214 18.7968 5.07794 17.868 5.86003 17.09C6.48693 16.4679 7.23421 15.9803 8.05612 15.657C8.87804 15.3337 9.75728 15.1816 10.64 15.21H13.36C14.2428 15.1816 15.122 15.3337 15.9439 15.657C16.7658 15.9803 17.5131 16.4679 18.14 17.09C18.8812 17.8219 19.4722 18.6915 19.88 19.65C19.9972 19.7903 20.0614 19.9673 20.0614 20.15C20.0614 20.3328 19.9972 20.5097 19.88 20.65C19.8452 20.6949 19.8049 20.7352 19.76 20.77C17.6214 22.6733 14.8629 23.7326 12 23.75ZM5.62003 20C7.43298 21.4441 9.68222 22.2304 12 22.2304C14.3178 22.2304 16.5671 21.4441 18.38 20C18.0601 19.3169 17.6197 18.697 17.08 18.17C16.592 17.6876 16.0098 17.3107 15.3698 17.063C14.7299 16.8152 14.0457 16.7019 13.36 16.73H10.64C9.95433 16.7019 9.2702 16.8152 8.6302 17.063C7.99021 17.3107 7.40807 17.6876 6.92003 18.17C6.38258 18.6989 5.94253 19.3184 5.62003 20Z" fill="black"/>
</svg>
