<svg width="21" height="21" viewBox="0 0 21 21" fill="none" xmlns="http://www.w3.org/2000/svg">
<path fill-rule="evenodd" clip-rule="evenodd" d="M20.5 4.48386C19.7497 4.81137 18.9551 5.02603 18.142 5.12086C18.9958 4.62036 19.6379 3.82575 19.948 2.88586C19.14 3.35559 18.2592 3.68683 17.342 3.86586C16.9551 3.46123 16.4901 3.13946 15.975 2.92011C15.46 2.70076 14.9058 2.5884 14.346 2.58986C12.08 2.58986 10.244 4.39786 10.244 6.62986C10.244 6.94586 10.279 7.25386 10.35 7.54986C8.72437 7.47252 7.13272 7.05734 5.67647 6.33076C4.22023 5.60419 2.93134 4.58217 1.89198 3.32986C1.5281 3.94443 1.33639 4.64564 1.33698 5.35986C1.33698 6.76186 2.06098 7.99786 3.16298 8.72186C2.51196 8.7025 1.8747 8.52983 1.30298 8.21786V8.26786C1.30298 10.2249 2.71798 11.8569 4.59498 12.2279C3.99007 12.3901 3.35639 12.414 2.74098 12.2979C3.00971 13.1054 3.5231 13.8093 4.20993 14.3119C4.89675 14.8146 5.72297 15.091 6.57398 15.1029C5.11439 16.2276 3.32263 16.8357 1.47998 16.8319C1.15281 16.8321 0.825907 16.8131 0.500977 16.7749C2.3828 17.964 4.56395 18.5934 6.78998 18.5899C14.337 18.5899 18.464 12.4349 18.464 7.09786C18.464 6.92186 18.46 6.74786 18.452 6.57486C19.2536 6.00523 19.9471 5.29713 20.5 4.48386Z" fill="#53565A"/>
</svg>
