<svg width="16" height="17" viewBox="0 0 16 17" fill="none" xmlns="http://www.w3.org/2000/svg">
<path d="M8.49998 0.599976C8.29998 0.599976 8.19998 0.599976 7.99998 0.599976C7.79998 0.599976 7.69998 0.599976 7.49998 0.599976C3.29998 0.799976 0.0999756 4.29998 0.0999756 8.49998C0.0999756 12.6 3.19998 16 7.19998 16.4C7.49998 16.4 7.69998 16.4 7.99998 16.4C8.29998 16.4 8.59998 16.4 8.79998 16.4C12.8 16 15.9 12.6 15.9 8.49998C15.9 4.29998 12.7 0.799976 8.49998 0.599976ZM5.19998 2.09998C4.19998 3.49998 3.59998 5.49998 3.49998 7.89998H1.09998C1.29998 5.29998 2.99998 3.09998 5.19998 2.09998ZM1.09998 9.09998H3.49998C3.59998 11.4 4.19998 13.5 5.19998 14.8C2.89998 13.8 1.29998 11.7 1.09998 9.09998ZM7.39998 15.2C5.89998 14.7 4.79998 12.1 4.69998 9.09998H7.39998V15.2ZM7.39998 7.89998H4.69998C4.79998 4.89998 5.99998 2.39998 7.39998 1.79998V7.89998ZM14.9 7.89998H12.5C12.4 5.49998 11.8 3.49998 10.8 2.09998C13.1 3.09998 14.7 5.29998 14.9 7.89998ZM8.59998 1.79998C9.99998 2.29998 11.2 4.89998 11.3 7.89998H8.59998V1.79998ZM8.59998 15.2V9.09998H11.3C11.2 12.1 10.1 14.7 8.59998 15.2ZM10.8 14.8C11.8 13.4 12.4 11.4 12.5 9.09998H14.9C14.7 11.6 13.1 13.8 10.8 14.8Z" fill="black"/>
</svg>
