<svg width="24" height="21" viewBox="0 0 24 21" fill="none" xmlns="http://www.w3.org/2000/svg">
<path fill-rule="evenodd" clip-rule="evenodd" d="M12 20.75C11.8499 20.7515 11.703 20.7061 11.58 20.62C11.26 20.41 3.78998 15.35 1.33998 10.86C-0.120018 8.18001 -0.450018 4.40001 2.08998 2.00001C3.28863 0.886659 4.86404 0.267883 6.49998 0.267883C8.13593 0.267883 9.71133 0.886659 10.91 2.00001L12 3.00001L13.08 2.00001C14.2786 0.886659 15.854 0.267883 17.49 0.267883C19.1259 0.267883 20.7013 0.886659 21.9 2.00001C24.44 4.41001 24.11 8.19001 22.65 10.87C20.2 15.36 12.75 20.42 12.43 20.63C12.303 20.7146 12.1524 20.7566 12 20.75ZM6.49998 1.75001C5.24917 1.7428 4.04315 2.21519 3.12998 3.07001C1.12998 4.94001 1.46998 7.97001 2.65998 10.14C4.65998 13.73 10.39 17.96 12 19.14C13.6 18 19.36 13.78 21.32 10.19C22.6 7.85001 22.86 4.51001 20.32 2.70001C19.3644 2.05528 18.2175 1.75545 17.0686 1.84998C15.9198 1.94451 14.8374 2.42775 14 3.22001L13.12 4.06001L14.57 5.46001L14.22 5.82001C14.0326 6.00626 13.7792 6.1108 13.515 6.1108C13.2508 6.1108 12.9973 6.00626 12.81 5.82001L9.86998 3.07001C8.95682 2.21519 7.7508 1.7428 6.49998 1.75001Z" fill="black"/>
</svg>
