<svg width="21" height="21" viewBox="0 0 21 21" fill="none" xmlns="http://www.w3.org/2000/svg">
<path fill-rule="evenodd" clip-rule="evenodd" d="M19.87 4.60359C19.1098 3.80745 18.2578 3.80349 17.8671 3.7569C15.0699 3.55469 10.8739 3.55469 10.8739 3.55469C10.8653 3.55469 6.6694 3.55469 3.8721 3.7569C3.48136 3.80349 2.62966 3.80745 1.86927 4.60359C1.26993 5.21019 1.0749 6.58766 1.0749 6.58766C1.0749 6.58766 0.875 8.20527 0.875 9.82287V11.3394C0.875 12.9569 1.0749 14.5745 1.0749 14.5745C1.0749 14.5745 1.26993 15.952 1.86927 16.5586C2.62966 17.3548 3.62848 17.3296 4.07336 17.413C5.67251 17.5664 10.8696 17.6138 10.8696 17.6138C10.8696 17.6138 15.0699 17.6075 17.8671 17.4053C18.2578 17.3587 19.1098 17.3548 19.87 16.5586C20.4693 15.952 20.6646 14.5745 20.6646 14.5745C20.6646 14.5745 20.8642 12.9569 20.8642 11.3394V9.82287C20.8642 8.20527 20.6646 6.58766 20.6646 6.58766C20.6646 6.58766 20.4693 5.21019 19.87 4.60359ZM8.80504 7.56064L14.2062 10.3786L8.80596 13.1771L8.80504 7.56064Z" fill="#53565A"/>
</svg>
